Coordinates
version=1
nRows=13
nColumns=36
inDegrees=yes

Units are S.I. units (second, meters, Newtons, ...)
If the header above contains a line with 'inDegrees', this indicates whether rotational values are in degrees (yes) or radians (no).

endheader
time	pelvis_tilt	pelvis_list	pelvis_rotation	pelvis_tx	pelvis_ty	pelvis_tz	hip_flexion_r	hip_adduction_r	hip_rotation_r	knee_angle_r	knee_angle_r_beta	ankle_angle_r	subtalar_angle_r	mtp_angle_r	hip_flexion_l	hip_adduction_l	hip_rotation_l	knee_angle_l	knee_angle_l_beta	ankle_angle_l	subtalar_angle_l	mtp_angle_l	lumbar_extension	lumbar_bending	lumbar_rotation	arm_flex_r	arm_add_r	arm_rot_r	elbow_flex_r	pro_sup_r	arm_flex_l	arm_add_l	arm_rot_l	elbow_flex_l	pro_sup_l
      0.00000000	     -0.95476441	      5.03692858	     14.35468969	     -0.33542977	      1.01730410	     -0.24559596	     27.79269589	     -9.38082216	    -18.35074506	      0.38177825	      0.00666329	      7.60467105	     14.32917326	     -4.48470157	    -14.46967263	      6.66067752	      3.06450040	      3.27152057	      0.05709881	     14.82721315	     14.39238720	     -4.48470157	    -11.96919180	     -4.26033971	    -12.77150049	    -24.74220572	     -2.66699459	    -19.19771587	     35.22365837	    107.75863850	      6.38898317	    -13.34023167	    -11.95263951	     64.35122395	    101.51898672
      0.01000000	     -0.98014151	      4.95312890	     14.78448641	     -0.32083939	      1.01566243	     -0.24548134	     27.53051566	     -9.26099417	    -17.92744869	      0.45469702	      0.00793596	      7.76866871	     13.96642404	     -4.51390660	    -15.03218024	      6.20858780	      3.04081838	      3.70715159	      0.06470200	     14.85031220	     14.46287561	     -4.51390660	    -11.92401307	     -4.15971746	    -12.95015364	    -25.32320071	     -2.49338690	    -19.23102965	     35.15638884	    107.95076622	      6.66425333	    -13.64264435	    -11.80771368	     65.19445120	    101.77095864
      0.02000000	     -1.03088762	      4.85293114	     15.08092224	     -0.30604557	      1.01395129	     -0.24503958	     27.26337294	     -8.99786084	    -16.81540779	      0.49351534	      0.00861347	      7.53511486	     12.33634673	     -4.64903214	    -15.49680823	      5.71581756	      2.41354037	      4.25167657	      0.07420575	     15.09451791	     15.42787889	     -4.64903214	    -11.82429007	     -4.07896617	    -13.16908682	    -25.80479633	     -2.30448663	    -19.58294033	     35.14501872	    108.79200888	      6.68356432	    -13.94328237	    -11.93623411	     66.20928096	    102.58192078
      0.03000000	     -0.96318276	      4.70908812	     15.40832891	     -0.29100769	      1.01256487	     -0.24462481	     26.81608445	     -8.68949754	    -16.21483325	      0.58490802	      0.01020857	      7.40999076	     11.55165758	     -4.69762346	    -16.10744156	      5.14458264	      2.21802237	      4.74161159	      0.08275673	     14.98359570	     15.68140207	     -4.69762346	    -11.82913984	     -3.92282726	    -13.30897624	    -26.25715974	     -2.14755990	    -19.73833806	     35.02630086	    108.98025759	      6.72246395	    -14.27721940	    -11.76330759	     67.14665884	    102.89147996
      0.04000000	     -0.95031518	      4.52324769	     15.67273790	     -0.27566037	      1.01127927	     -0.24397853	     26.34731026	     -8.25696489	    -15.29135155	      0.63476057	      0.01107866	      6.82859034	     10.12939891	     -4.76444775	    -16.59378280	      4.52459311	      1.75817788	      5.30957099	      0.09266950	     14.82584006	     16.22436559	     -4.76444775	    -11.73917714	     -3.76957639	    -13.45519736	    -26.63235884	     -1.98962570	    -19.99587510	     34.95686795	    109.24324641	      6.60126106	    -14.53484491	    -11.86215290	     68.10350230	    103.26061662
      0.05000000	     -1.00503587	      4.28864337	     15.89417583	     -0.25998630	      1.01013768	     -0.24313712	     25.88731561	     -7.72711082	    -14.37356377	      0.66007087	      0.01152041	      6.01325353	      8.62820909	     -4.90492069	    -16.90156040	      3.85373382	      1.19051770	      6.06727699	      0.10589396	     14.61819200	     16.91435073	     -4.90492069	    -11.53112857	     -3.61257833	    -13.53858083	    -26.96573316	     -1.85032649	    -20.19410141	     34.78987178	    109.64292078	      6.35885711	    -14.69971199	    -12.15073909	     68.96290069	    103.77067063
      0.06000000	     -0.91333274	      4.02969897	     16.11481783	     -0.24392462	      1.00951296	     -0.24230554	     25.21048786	     -7.13633154	    -13.99390057	      0.68037703	      0.01187482	      5.08877349	      7.98694509	     -4.94315092	    -17.36938806	      3.12712560	      0.92872424	      6.78306108	      0.11838675	     13.96425109	     16.86852600	     -4.94315092	    -11.45141344	     -3.38973619	    -13.55905753	    -27.24992021	     -1.72199783	    -20.32528491	     34.60631615	    109.64240938	      6.03116714	    -14.94386379	    -12.10334950	     69.79406930	    103.92068715
      0.07000000	     -0.87280419	      3.74339974	     16.25056451	     -0.22758364	      1.00909108	     -0.24123413	     24.55076061	     -6.45290879	    -13.39071183	      0.63211240	      0.01103244	      3.76674957	      7.02011220	     -4.98676358	    -17.70487590	      2.38646298	      0.62213810	      7.63389448	      0.13323659	     13.21605845	     16.91573126	     -4.98676358	    -11.29329961	     -3.18988037	    -13.58213948	    -27.41696433	     -1.62871867	    -20.46818051	     34.40070417	    109.65093358	      5.49401602	    -15.11398135	    -12.32208866	     70.64903685	    104.05795534
      0.08000000	     -0.87423937	      3.44459166	     16.32859871	     -0.21102126	      1.00895759	     -0.24005936	     23.92330007	     -5.74979577	    -12.91214401	      0.56222386	      0.00981266	      2.32080481	      6.31912426	     -5.02372339	    -17.86994854	      1.65950256	      0.31762033	      8.68173688	      0.15152489	     12.30342594	     16.81926418	     -5.02372339	    -11.05949264	     -3.00779113	    -13.55252322	    -27.50345461	     -1.57069321	    -20.54937623	     34.16353084	    109.65016619	      4.85347228	    -15.23879203	    -12.57333733	     71.39177242	    104.15933065
      0.09000000	     -0.93991298	      3.11952150	     16.34211678	     -0.19434171	      1.00908154	     -0.23867982	     23.37493708	     -5.00613832	    -12.26015599	      0.49299067	      0.00860431	      0.64263240	      5.34605968	     -5.07983099	    -17.84765229	      0.92726502	      0.06953297	      9.91779364	      0.17309815	     11.31031361	     16.74532200	     -5.07983099	    -10.75785487	     -2.84354546	    -13.56266893	    -27.44633065	     -1.57448590	    -20.53407726	     33.84197199	    109.70088827	      3.97186698	    -15.27076357	    -13.12505905	     72.22952782	    104.28233783
      0.10000000	     -1.02981933	      2.79450908	     16.32003170	     -0.17756480	      1.00953526	     -0.23720406	     22.84903817	     -4.29536061	    -11.69121236	      0.44479244	      0.00776309	     -1.03882937	      4.61478095	     -5.16213281	    -17.61764078	      0.21274704	     -0.15713924	     11.44968668	      0.19983473	     10.11209852	     16.41906067	     -5.16213281	    -10.43488280	     -2.72648306	    -13.58086287	    -27.29485813	     -1.64497382	    -20.32573213	     33.48166496	    109.78411031	      2.98549776	    -15.27027542	    -13.77406814	     72.96933211	    104.40672225
      0.11000000	     -0.96480391	      2.44009194	     16.24294277	     -0.16062807	      1.01052399	     -0.23572773	     22.16858819	     -3.55631268	    -11.57011196	      0.44056604	      0.00768933	     -2.39811565	      4.72174279	     -5.18993042	    -17.37995330	     -0.55425016	     -0.42468725	     13.22274638	      0.23078046	      8.59132658	     15.79597288	     -5.18993042	    -10.24764861	     -2.50707664	    -13.27033773	    -27.24783101	     -1.63355670	    -20.29270189	     33.33464907	    109.76572655	      2.22357814	    -15.26982319	    -13.89555971	     73.28479315	    104.43812633
      0.12000000	     -0.89942559	      2.05377977	     16.11754153	     -0.14370294	      1.01179999	     -0.23412827	     21.48240661	     -2.80545942	    -11.36912943	      0.45790187	      0.00799190	     -3.82744924	      4.56877755	     -5.21813896	    -16.91857468	     -1.34243842	     -0.66839251	     15.32400838	      0.26745440	      6.88431216	     15.03100407	     -5.21813896	    -10.06281922	     -2.26470966	    -12.94391078	    -27.11002157	     -1.64005206	    -20.26441252	     33.23404594	    109.74097412	      1.34533398	    -15.18892436	    -14.17653311	     73.59622871	    104.44661932
